<svg version="1.1" id="Layer_1" xmlns="http://www.w3.org/2000/svg" xmlns:xlink="http://www.w3.org/1999/xlink"
	 width="64" height="64" viewBox="430 190 180 180" preserveAspectRatio="xMidYMid meet" xml:space="preserve">
<path fill="#000000" opacity="1.000000" stroke="none" 
	d="
M538.172791,212.930420 
	C552.186340,210.818619 565.767761,208.787735 579.199768,206.779205 
	C580.480103,209.362793 579.137695,210.888672 578.437683,212.472336 
	C573.928955,222.672272 569.449585,232.886887 564.776489,243.011749 
	C562.504333,247.934769 561.387878,252.728317 561.944702,258.354828 
	C563.139221,270.426178 563.457520,282.585815 564.073669,294.712402 
	C565.205017,316.977570 566.234680,339.248138 567.458984,361.508087 
	C567.647583,364.937927 566.698669,366.214783 563.152344,366.381409 
	C530.244019,367.927795 497.351837,369.855042 464.434570,371.155792 
	C452.331848,371.634064 452.713226,374.146332 451.610535,359.484161 
	C449.902496,336.772858 447.958679,314.077759 445.908508,291.394440 
	C445.118042,282.648346 444.876434,282.668152 452.508850,278.580566 
	C469.827332,269.305634 487.097107,259.938141 504.489288,250.803650 
	C507.716095,249.108917 509.547699,246.841476 510.668518,243.495529 
	C513.205017,235.923264 516.246155,228.509918 518.527039,220.866333 
	C519.669067,217.039261 521.733215,215.441437 525.430847,214.986481 
	C529.552734,214.479324 533.638916,213.682251 538.172791,212.930420 
M548.349670,339.584229 
	C546.353516,344.122345 543.683899,348.071960 538.846069,349.983398 
	C535.596252,351.267395 532.202637,351.557190 529.300049,349.383148 
	C526.161926,347.032684 528.585632,344.111053 529.277283,341.625458 
	C539.398560,305.254303 549.650696,268.919525 559.802063,232.556686 
	C560.563599,229.828781 561.942871,227.874130 564.271057,226.258896 
	C567.362366,224.114212 570.485229,221.815979 570.938782,217.754562 
	C569.920044,216.405334 568.731812,216.295593 567.577698,216.523193 
	C554.791870,219.044785 541.814636,219.394791 528.858948,219.995514 
	C525.319336,220.159637 523.592651,222.170868 522.938477,225.512589 
	C526.046570,227.864014 529.547852,226.902588 532.748352,227.135864 
	C537.087891,227.452148 538.665649,228.824234 537.195374,233.349838 
	C535.348206,239.035416 534.071289,244.905106 532.510925,250.685242 
	C530.584656,257.820587 528.619812,264.945526 526.729797,271.862366 
	C523.965454,271.888062 522.998718,270.348694 521.786804,269.307220 
	C518.290283,266.302521 514.307556,264.223328 509.796600,263.487762 
	C495.454132,261.149078 483.233154,265.827759 473.784668,276.388733 
	C457.498505,294.592499 452.190308,316.487244 454.499451,340.410278 
	C455.026428,345.869781 456.840271,351.129272 459.741608,355.908905 
	C464.490692,363.732513 472.409576,367.382172 481.379272,365.766388 
	C490.162659,364.184143 496.092316,358.482819 501.364410,351.821960 
	C502.519135,350.363098 503.189606,348.210876 505.615540,348.162445 
	C508.063324,358.727356 512.254883,361.983765 523.118774,361.802307 
	C536.721008,361.575073 546.524414,354.059937 555.170715,344.677307 
	C557.861267,341.757629 561.358582,339.181610 562.399231,334.464081 
	C558.348145,333.520233 555.334290,330.628510 551.143494,330.012482 
	C550.239441,333.162079 549.421936,336.010193 548.349670,339.584229 
z"/>
<path fill="#000000" opacity="1.000000" stroke="none" 
	d="
M494.386597,290.413544 
	C496.372345,285.926239 498.762970,282.124664 502.064789,279.011566 
	C505.508179,275.764954 509.482819,274.168701 514.374084,275.435944 
	C522.865967,277.635956 524.615662,280.374664 522.432861,288.756958 
	C520.006287,298.075378 517.732788,307.440796 515.011902,316.673584 
	C511.691895,327.939301 503.649963,336.115936 495.404938,343.764252 
	C490.272461,348.525269 485.094666,346.461853 482.811798,339.631287 
	C480.456696,332.584503 481.730621,325.477722 483.271484,318.480133 
	C485.432953,308.664215 489.632507,299.620361 494.386597,290.413544 
z"/>
</svg>
